<mxfile host="app.diagrams.net" modified="2024-01-18T05:23:18.283Z" agent="Mozilla/5.0 (Macintosh; Intel Mac OS X 10_15_7) AppleWebKit/537.36 (KHTML, like Gecko) Chrome/116.0.0.0 Safari/537.36" etag="VoKXAJ7F46zni38aqzur" version="22.1.21" type="github">
  <diagram name="第 1 页" id="C8El7X4R0MNUI12ComAL">
    <mxGraphModel dx="1526" dy="873" grid="1" gridSize="10" guides="1" tooltips="1" connect="1" arrows="1" fold="1" page="0" pageScale="1" pageWidth="827" pageHeight="1169" math="0" shadow="0">
      <root>
        <mxCell id="0" />
        <mxCell id="1" parent="0" />
        <mxCell id="TxfDrytHoigwNO3QsFBK-5" value="getAuthToken(&lt;b style=&quot;border-color: var(--border-color);&quot;&gt;&lt;i style=&quot;border-color: var(--border-color);&quot;&gt;&lt;font style=&quot;border-color: var(--border-color);&quot; color=&quot;#ff33ff&quot;&gt;genesisDID&lt;/font&gt;,&amp;nbsp;&lt;i style=&quot;border-color: var(--border-color);&quot;&gt;&lt;font style=&quot;border-color: var(--border-color);&quot; color=&quot;#0000ff&quot;&gt;privateKey,&lt;/font&gt;&lt;br style=&quot;border-color: var(--border-color);&quot;&gt;&lt;font style=&quot;border-color: var(--border-color);&quot; color=&quot;#cc6600&quot;&gt;profileNonceForScenario1, &lt;/font&gt;&lt;font style=&quot;border-color: var(--border-color);&quot;&gt;message&lt;/font&gt;&lt;/i&gt;&lt;/i&gt;&lt;/b&gt;)" style="html=1;verticalAlign=bottom;endArrow=block;curved=0;rounded=0;sourcePerimeterSpacing=0;entryX=0;entryY=0;entryDx=0;entryDy=5;entryPerimeter=0;" parent="1" source="TxfDrytHoigwNO3QsFBK-1" target="TxfDrytHoigwNO3QsFBK-18" edge="1">
          <mxGeometry relative="1" as="geometry">
            <mxPoint x="324" y="200" as="sourcePoint" />
            <mxPoint x="494" y="195" as="targetPoint" />
          </mxGeometry>
        </mxCell>
        <mxCell id="TxfDrytHoigwNO3QsFBK-1" value="&lt;div style=&quot;line-height: 21px;&quot;&gt;&lt;span style=&quot;background-color: rgb(255, 255, 255);&quot;&gt;&lt;font style=&quot;font-size: 12px;&quot; face=&quot;Helvetica&quot;&gt;Other&lt;/font&gt;&lt;/span&gt;&lt;/div&gt;&lt;div style=&quot;line-height: 21px;&quot;&gt;&lt;span style=&quot;background-color: rgb(255, 255, 255);&quot;&gt;&lt;font face=&quot;Helvetica&quot; style=&quot;font-size: 12px;&quot;&gt;UseCase&lt;/font&gt;&lt;/span&gt;&lt;/div&gt;" style="shape=umlLifeline;perimeter=lifelinePerimeter;whiteSpace=wrap;html=1;container=1;dropTarget=0;collapsible=0;recursiveResize=0;outlineConnect=0;portConstraint=eastwest;newEdgeStyle={&quot;curved&quot;:0,&quot;rounded&quot;:0};" parent="1" vertex="1">
          <mxGeometry x="278" y="120" width="100" height="1700" as="geometry" />
        </mxCell>
        <mxCell id="TxfDrytHoigwNO3QsFBK-7" value="" style="html=1;points=[[0,0,0,0,5],[0,1,0,0,-5],[1,0,0,0,5],[1,1,0,0,-5]];perimeter=orthogonalPerimeter;outlineConnect=0;targetShapes=umlLifeline;portConstraint=eastwest;newEdgeStyle={&quot;curved&quot;:0,&quot;rounded&quot;:0};" parent="TxfDrytHoigwNO3QsFBK-1" vertex="1">
          <mxGeometry x="45" y="70" width="10" height="1600" as="geometry" />
        </mxCell>
        <mxCell id="TxfDrytHoigwNO3QsFBK-3" value="&lt;div style=&quot;border-color: var(--border-color); line-height: 21px;&quot;&gt;GetAuthToken&lt;/div&gt;&lt;div style=&quot;border-color: var(--border-color); line-height: 21px;&quot;&gt;&lt;span style=&quot;border-color: var(--border-color);&quot;&gt;UseCase&lt;/span&gt;&lt;/div&gt;" style="shape=umlLifeline;perimeter=lifelinePerimeter;whiteSpace=wrap;html=1;container=1;dropTarget=0;collapsible=0;recursiveResize=0;outlineConnect=0;portConstraint=eastwest;newEdgeStyle={&quot;curved&quot;:0,&quot;rounded&quot;:0};" parent="1" vertex="1">
          <mxGeometry x="600" y="120" width="100" height="1637" as="geometry" />
        </mxCell>
        <mxCell id="TxfDrytHoigwNO3QsFBK-18" value="" style="html=1;points=[[0,0,0,0,5],[0,1,0,0,-5],[1,0,0,0,5],[1,1,0,0,-5]];perimeter=orthogonalPerimeter;outlineConnect=0;targetShapes=umlLifeline;portConstraint=eastwest;newEdgeStyle={&quot;curved&quot;:0,&quot;rounded&quot;:0};" parent="TxfDrytHoigwNO3QsFBK-3" vertex="1">
          <mxGeometry x="45" y="94" width="10" height="1212" as="geometry" />
        </mxCell>
        <mxCell id="f_Ja7BS4CiRk9DhTNqwc-1" value="&lt;span style=&quot;background-color: rgb(255, 255, 255); font-size: 10px;&quot;&gt;&lt;font face=&quot;Helvetica&quot; style=&quot;font-size: 10px;&quot;&gt;&lt;i style=&quot;&quot;&gt;&lt;b style=&quot;&quot;&gt;message&lt;/b&gt;&lt;font color=&quot;#999999&quot;&gt; is json string format from&amp;nbsp;&lt;/font&gt;&lt;br&gt;&lt;/i&gt;&lt;/font&gt;&lt;/span&gt;&lt;div style=&quot;line-height: 160%; font-size: 10px;&quot;&gt;&lt;div style=&quot;line-height: 160%;&quot;&gt;&lt;span style=&quot;background-color: rgb(255, 255, 255);&quot;&gt;&lt;font face=&quot;Helvetica&quot; style=&quot;font-size: 10px;&quot;&gt;&lt;i style=&quot;&quot;&gt;&lt;font color=&quot;#999999&quot;&gt;abstract class &lt;/font&gt;&lt;b style=&quot;&quot;&gt;Iden3MessageEntity&lt;/b&gt;&lt;font color=&quot;#999999&quot;&gt; {&lt;/font&gt;&lt;/i&gt;&lt;/font&gt;&lt;/span&gt;&lt;/div&gt;&lt;div style=&quot;line-height: 160%;&quot;&gt;  &lt;span style=&quot;background-color: rgb(255, 255, 255);&quot;&gt;&lt;i&gt;&lt;font color=&quot;#999999&quot; style=&quot;font-size: 10px;&quot;&gt;&lt;font style=&quot;font-family: gbLCjAvpehOjc9brSCwv; font-size: 10px;&quot;&gt;&amp;nbsp;&lt;/font&gt;&lt;font style=&quot;font-size: 10px;&quot;&gt; final String id;&lt;/font&gt;&lt;/font&gt;&lt;/i&gt;&lt;/span&gt;&lt;/div&gt;&lt;div style=&quot;line-height: 160%;&quot;&gt;  &lt;span style=&quot;background-color: rgb(255, 255, 255);&quot;&gt;&lt;font color=&quot;#999999&quot; style=&quot;font-size: 10px;&quot; face=&quot;Helvetica&quot;&gt;&lt;i&gt;&lt;font style=&quot;font-size: 10px;&quot;&gt;&amp;nbsp;&lt;/font&gt;&lt;font style=&quot;font-size: 10px;&quot;&gt; final String typ;&lt;/font&gt;&lt;/i&gt;&lt;/font&gt;&lt;/span&gt;&lt;/div&gt;&lt;div style=&quot;line-height: 160%;&quot;&gt;  &lt;span style=&quot;background-color: rgb(255, 255, 255);&quot;&gt;&lt;i&gt;&lt;font color=&quot;#999999&quot; style=&quot;font-size: 10px;&quot;&gt;&lt;font style=&quot;font-size: 10px;&quot;&gt;&lt;font style=&quot;font-size: 10px;&quot; face=&quot;gbLCjAvpehOjc9brSCwv&quot;&gt;&amp;nbsp;&lt;/font&gt;&lt;font style=&quot;font-size: 10px;&quot; face=&quot;Helvetica&quot;&gt; &lt;/font&gt;&lt;/font&gt;&lt;font face=&quot;Helvetica&quot; style=&quot;font-size: 10px;&quot;&gt;final String type;&lt;/font&gt;&lt;/font&gt;&lt;/i&gt;&lt;/span&gt;&lt;/div&gt;&lt;div style=&quot;line-height: 160%;&quot;&gt;  &lt;span style=&quot;background-color: rgb(255, 255, 255);&quot;&gt;&lt;i&gt;&lt;font color=&quot;#999999&quot; style=&quot;font-size: 10px;&quot;&gt;&lt;font style=&quot;font-family: gbLCjAvpehOjc9brSCwv; font-size: 10px;&quot;&gt;&amp;nbsp; &lt;/font&gt;&lt;font style=&quot;font-size: 10px;&quot;&gt;final Iden3MessageType messageType;&lt;/font&gt;&lt;/font&gt;&lt;/i&gt;&lt;/span&gt;&lt;/div&gt;&lt;div style=&quot;line-height: 160%;&quot;&gt;  &lt;span style=&quot;background-color: rgb(255, 255, 255);&quot;&gt;&lt;i&gt;&lt;font color=&quot;#999999&quot; style=&quot;font-size: 10px;&quot;&gt;&lt;font style=&quot;font-family: gbLCjAvpehOjc9brSCwv; font-size: 10px;&quot;&gt;&amp;nbsp;&lt;/font&gt;&lt;font style=&quot;font-size: 10px;&quot;&gt; &lt;font style=&quot;font-size: 10px;&quot; face=&quot;Helvetica&quot;&gt;final String thid;&lt;/font&gt;&lt;/font&gt;&lt;/font&gt;&lt;/i&gt;&lt;/span&gt;&lt;/div&gt;&lt;div style=&quot;line-height: 160%;&quot;&gt;  &lt;span style=&quot;background-color: rgb(255, 255, 255);&quot;&gt;&lt;i&gt;&lt;font color=&quot;#999999&quot; style=&quot;font-size: 10px;&quot;&gt;&lt;font style=&quot;font-family: Helvetica; font-size: 10px;&quot;&gt;&amp;nbsp; &lt;/font&gt;&lt;font face=&quot;Helvetica&quot; style=&quot;font-size: 10px;&quot;&gt;abstract final body;&lt;/font&gt;&lt;/font&gt;&lt;/i&gt;&lt;/span&gt;&lt;/div&gt;&lt;div style=&quot;line-height: 160%;&quot;&gt;  &lt;span style=&quot;background-color: rgb(255, 255, 255);&quot;&gt;&lt;i&gt;&lt;font color=&quot;#999999&quot; style=&quot;font-size: 10px;&quot;&gt;&lt;font face=&quot;gbLCjAvpehOjc9brSCwv&quot; style=&quot;font-size: 10px;&quot;&gt;&amp;nbsp;&lt;/font&gt;&lt;font face=&quot;Helvetica&quot; style=&quot;font-size: 10px;&quot;&gt; &lt;/font&gt;&lt;font face=&quot;Helvetica&quot; style=&quot;font-size: 10px;&quot;&gt;final String from;&lt;/font&gt;&lt;/font&gt;&lt;/i&gt;&lt;/span&gt;&lt;/div&gt;&lt;div style=&quot;line-height: 160%;&quot;&gt;  &lt;span style=&quot;background-color: rgb(255, 255, 255);&quot;&gt;&lt;i&gt;&lt;font color=&quot;#999999&quot; style=&quot;font-size: 10px;&quot;&gt;&lt;font face=&quot;gbLCjAvpehOjc9brSCwv&quot; style=&quot;font-size: 10px;&quot;&gt;&amp;nbsp; &lt;/font&gt;&lt;font face=&quot;Helvetica&quot; style=&quot;font-size: 10px;&quot;&gt;final String? to;&lt;/font&gt;&lt;/font&gt;&lt;/i&gt;&lt;/span&gt;&lt;/div&gt;&lt;div style=&quot;line-height: 160%;&quot;&gt;&lt;span style=&quot;background-color: rgb(255, 255, 255);&quot;&gt;&lt;font color=&quot;#999999&quot; face=&quot;gbLCjAvpehOjc9brSCwv&quot; style=&quot;font-size: 10px;&quot;&gt;&lt;i style=&quot;&quot;&gt;}&lt;/i&gt;&lt;/font&gt;&lt;/span&gt;&lt;/div&gt;&lt;/div&gt;" style="text;html=1;align=left;verticalAlign=middle;resizable=0;points=[];autosize=1;strokeColor=none;fillColor=none;" vertex="1" parent="1">
          <mxGeometry x="394" y="234" width="199" height="186" as="geometry" />
        </mxCell>
        <mxCell id="f_Ja7BS4CiRk9DhTNqwc-4" value="&lt;div style=&quot;border-color: var(--border-color); line-height: 21px;&quot;&gt;Other&lt;/div&gt;&lt;div style=&quot;border-color: var(--border-color); line-height: 21px;&quot;&gt;&lt;span style=&quot;border-color: var(--border-color);&quot;&gt;UseCase&lt;/span&gt;&lt;/div&gt;" style="shape=umlLifeline;perimeter=lifelinePerimeter;whiteSpace=wrap;html=1;container=1;dropTarget=0;collapsible=0;recursiveResize=0;outlineConnect=0;portConstraint=eastwest;newEdgeStyle={&quot;curved&quot;:0,&quot;rounded&quot;:0};" vertex="1" parent="1">
          <mxGeometry x="841" y="120" width="100" height="1637" as="geometry" />
        </mxCell>
        <mxCell id="f_Ja7BS4CiRk9DhTNqwc-5" value="" style="html=1;points=[[0,0,0,0,5],[0,1,0,0,-5],[1,0,0,0,5],[1,1,0,0,-5]];perimeter=orthogonalPerimeter;outlineConnect=0;targetShapes=umlLifeline;portConstraint=eastwest;newEdgeStyle={&quot;curved&quot;:0,&quot;rounded&quot;:0};" vertex="1" parent="f_Ja7BS4CiRk9DhTNqwc-4">
          <mxGeometry x="45" y="94" width="10" height="1212" as="geometry" />
        </mxCell>
        <mxCell id="f_Ja7BS4CiRk9DhTNqwc-30" value="" style="html=1;points=[[0,0,0,0,5],[0,1,0,0,-5],[1,0,0,0,5],[1,1,0,0,-5]];perimeter=orthogonalPerimeter;outlineConnect=0;targetShapes=umlLifeline;portConstraint=eastwest;newEdgeStyle={&quot;curved&quot;:0,&quot;rounded&quot;:0};" vertex="1" parent="f_Ja7BS4CiRk9DhTNqwc-4">
          <mxGeometry x="50" y="229" width="10" height="40" as="geometry" />
        </mxCell>
        <mxCell id="f_Ja7BS4CiRk9DhTNqwc-31" value="&lt;div style=&quot;border-color: var(--border-color); text-align: center; line-height: 13.2px;&quot;&gt;GetAuthChallengeUseCase&lt;font style=&quot;border-color: var(--border-color);&quot; face=&quot;Helvetica&quot;&gt;execute&lt;/font&gt;&lt;span style=&quot;border-color: var(--border-color);&quot;&gt;&lt;/span&gt;&lt;/div&gt;&lt;div style=&quot;border-color: var(--border-color); text-align: center; line-height: 13.2px;&quot;&gt;&lt;span style=&quot;border-color: var(--border-color);&quot;&gt;(&lt;b style=&quot;border-color: var(--border-color);&quot;&gt;&lt;i style=&quot;border-color: var(--border-color);&quot;&gt;message,&amp;nbsp;&lt;/i&gt;&lt;/b&gt;&lt;/span&gt;zkpoof = nil)&lt;/div&gt;" style="html=1;align=left;spacingLeft=2;endArrow=block;rounded=0;edgeStyle=orthogonalEdgeStyle;curved=0;rounded=0;" edge="1" target="f_Ja7BS4CiRk9DhTNqwc-30" parent="f_Ja7BS4CiRk9DhTNqwc-4">
          <mxGeometry relative="1" as="geometry">
            <mxPoint x="55" y="209" as="sourcePoint" />
            <Array as="points">
              <mxPoint x="85" y="239" />
            </Array>
          </mxGeometry>
        </mxCell>
        <mxCell id="f_Ja7BS4CiRk9DhTNqwc-33" value="" style="html=1;points=[[0,0,0,0,5],[0,1,0,0,-5],[1,0,0,0,5],[1,1,0,0,-5]];perimeter=orthogonalPerimeter;outlineConnect=0;targetShapes=umlLifeline;portConstraint=eastwest;newEdgeStyle={&quot;curved&quot;:0,&quot;rounded&quot;:0};" vertex="1" parent="f_Ja7BS4CiRk9DhTNqwc-4">
          <mxGeometry x="50" y="510" width="10" height="40" as="geometry" />
        </mxCell>
        <mxCell id="f_Ja7BS4CiRk9DhTNqwc-34" value="getAuthClaim()" style="html=1;align=left;spacingLeft=2;endArrow=block;rounded=0;edgeStyle=orthogonalEdgeStyle;curved=0;rounded=0;" edge="1" target="f_Ja7BS4CiRk9DhTNqwc-33" parent="f_Ja7BS4CiRk9DhTNqwc-4">
          <mxGeometry relative="1" as="geometry">
            <mxPoint x="55" y="490" as="sourcePoint" />
            <Array as="points">
              <mxPoint x="85" y="520" />
            </Array>
          </mxGeometry>
        </mxCell>
        <mxCell id="f_Ja7BS4CiRk9DhTNqwc-8" value="&lt;div style=&quot;line-height: 120%;&quot;&gt;&lt;div style=&quot;line-height: 120%;&quot;&gt;&lt;font style=&quot;background-color: rgb(255, 255, 255);&quot; face=&quot;Helvetica&quot;&gt;GetJWZUseCase.execute(&lt;b&gt;&lt;i&gt;message,&amp;nbsp;&lt;/i&gt;&lt;/b&gt;&lt;/font&gt;&lt;/div&gt;&lt;div style=&quot;line-height: 120%;&quot;&gt;&lt;font style=&quot;background-color: rgb(255, 255, 255);&quot; face=&quot;Helvetica&quot;&gt;zkpoof = nil)&lt;/font&gt;&lt;/div&gt;&lt;/div&gt;" style="html=1;verticalAlign=bottom;endArrow=block;curved=0;rounded=0;sourcePerimeterSpacing=0;" edge="1" parent="1">
          <mxGeometry relative="1" as="geometry">
            <mxPoint x="660" y="304" as="sourcePoint" />
            <mxPoint x="884" y="302" as="targetPoint" />
          </mxGeometry>
        </mxCell>
        <mxCell id="f_Ja7BS4CiRk9DhTNqwc-18" value="&lt;div style=&quot;border-color: var(--border-color); line-height: 21px;&quot;&gt;&lt;div style=&quot;line-height: 21px;&quot;&gt;Native Library&lt;/div&gt;&lt;/div&gt;" style="shape=umlLifeline;perimeter=lifelinePerimeter;whiteSpace=wrap;html=1;container=1;dropTarget=0;collapsible=0;recursiveResize=0;outlineConnect=0;portConstraint=eastwest;newEdgeStyle={&quot;curved&quot;:0,&quot;rounded&quot;:0};" vertex="1" parent="1">
          <mxGeometry x="1080" y="120" width="100" height="1637" as="geometry" />
        </mxCell>
        <mxCell id="f_Ja7BS4CiRk9DhTNqwc-19" value="" style="html=1;points=[[0,0,0,0,5],[0,1,0,0,-5],[1,0,0,0,5],[1,1,0,0,-5]];perimeter=orthogonalPerimeter;outlineConnect=0;targetShapes=umlLifeline;portConstraint=eastwest;newEdgeStyle={&quot;curved&quot;:0,&quot;rounded&quot;:0};" vertex="1" parent="f_Ja7BS4CiRk9DhTNqwc-18">
          <mxGeometry x="45" y="94" width="10" height="1212" as="geometry" />
        </mxCell>
        <mxCell id="f_Ja7BS4CiRk9DhTNqwc-22" value="&lt;div style=&quot;line-height: 120%;&quot;&gt;&lt;div style=&quot;line-height: 120%;&quot;&gt;babyjubjub.hashPoseidon(&lt;b&gt;&lt;i&gt;message&lt;/i&gt;&lt;/b&gt;)&lt;br&gt;&lt;/div&gt;&lt;/div&gt;" style="html=1;verticalAlign=bottom;endArrow=block;curved=0;rounded=0;sourcePerimeterSpacing=0;" edge="1" parent="1">
          <mxGeometry relative="1" as="geometry">
            <mxPoint x="900" y="420" as="sourcePoint" />
            <mxPoint x="1120" y="420" as="targetPoint" />
          </mxGeometry>
        </mxCell>
        <mxCell id="f_Ja7BS4CiRk9DhTNqwc-24" value="&lt;b style=&quot;border-color: var(--border-color);&quot;&gt;&lt;i style=&quot;border-color: var(--border-color);&quot;&gt;&lt;font style=&quot;border-color: var(--border-color);&quot; color=&quot;#4d9900&quot;&gt;authChallenge&lt;/font&gt;&lt;/i&gt;&lt;/b&gt;" style="html=1;verticalAlign=bottom;endArrow=open;dashed=1;endSize=8;curved=0;rounded=0;" edge="1" parent="1">
          <mxGeometry relative="1" as="geometry">
            <mxPoint x="1123" y="460" as="sourcePoint" />
            <mxPoint x="900" y="460" as="targetPoint" />
          </mxGeometry>
        </mxCell>
        <mxCell id="f_Ja7BS4CiRk9DhTNqwc-25" value="&lt;b style=&quot;border-color: var(--border-color);&quot;&gt;&lt;i style=&quot;border-color: var(--border-color);&quot;&gt;&lt;font style=&quot;border-color: var(--border-color);&quot; color=&quot;#4d9900&quot;&gt;authChallenge&lt;/font&gt;&lt;/i&gt;&lt;/b&gt;" style="html=1;verticalAlign=bottom;endArrow=open;dashed=1;endSize=8;curved=0;rounded=0;" edge="1" parent="1">
          <mxGeometry relative="1" as="geometry">
            <mxPoint x="883" y="490" as="sourcePoint" />
            <mxPoint x="660" y="490" as="targetPoint" />
          </mxGeometry>
        </mxCell>
        <mxCell id="f_Ja7BS4CiRk9DhTNqwc-26" value="&lt;div style=&quot;line-height: 120%;&quot;&gt;&lt;div style=&quot;line-height: 120%;&quot;&gt;GetAuthInputsUseCase&lt;font style=&quot;&quot; face=&quot;Helvetica&quot;&gt;.execute(&lt;/font&gt;&lt;/div&gt;&lt;div style=&quot;line-height: 120%;&quot;&gt;&lt;b style=&quot;border-color: var(--border-color);&quot;&gt;&lt;i style=&quot;border-color: var(--border-color);&quot;&gt;&lt;font style=&quot;border-color: var(--border-color);&quot; color=&quot;#4d9900&quot;&gt;authChallenge&lt;/font&gt;&lt;/i&gt;&lt;/b&gt;&lt;font style=&quot;&quot; face=&quot;Helvetica&quot;&gt;&lt;b&gt;&lt;i&gt;,&amp;nbsp;&lt;/i&gt;&lt;/b&gt;&lt;/font&gt;&lt;/div&gt;&lt;b style=&quot;border-color: var(--border-color);&quot;&gt;&lt;i style=&quot;border-color: var(--border-color);&quot;&gt;&lt;font style=&quot;border-color: var(--border-color);&quot; color=&quot;#ff33ff&quot;&gt;genesisDID&lt;/font&gt;,&amp;nbsp;&lt;i style=&quot;border-color: var(--border-color);&quot;&gt;&lt;font style=&quot;border-color: var(--border-color);&quot; color=&quot;#0000ff&quot;&gt;privateKey,&lt;/font&gt;&lt;/i&gt;&lt;/i&gt;&lt;/b&gt;&lt;/div&gt;&lt;div style=&quot;line-height: 120%;&quot;&gt;&lt;b style=&quot;border-color: var(--border-color);&quot;&gt;&lt;i style=&quot;border-color: var(--border-color);&quot;&gt;&lt;i style=&quot;border-color: var(--border-color);&quot;&gt;&lt;font style=&quot;border-color: var(--border-color);&quot; color=&quot;#cc6600&quot;&gt;profileNonceForScenario1&lt;/font&gt;&lt;/i&gt;&lt;/i&gt;&lt;/b&gt;&lt;font face=&quot;Helvetica&quot;&gt;)&lt;/font&gt;&lt;/div&gt;" style="html=1;verticalAlign=bottom;endArrow=block;curved=0;rounded=0;sourcePerimeterSpacing=0;" edge="1" parent="1">
          <mxGeometry x="-0.0178" y="1" relative="1" as="geometry">
            <mxPoint x="660" y="592" as="sourcePoint" />
            <mxPoint x="884" y="590" as="targetPoint" />
            <mxPoint as="offset" />
          </mxGeometry>
        </mxCell>
        <mxCell id="f_Ja7BS4CiRk9DhTNqwc-35" value="&lt;div style=&quot;color: rgb(171, 178, 191); font-family: &amp;quot;JetBrains Mono&amp;quot;, Menlo, Monaco, &amp;quot;Courier New&amp;quot;, monospace; font-size: 11px; line-height: 21px;&quot;&gt;&lt;div style=&quot;&quot;&gt;&lt;div style=&quot;line-height: 21px;&quot;&gt;&lt;div style=&quot;&quot;&gt;&lt;span style=&quot;background-color: rgb(0, 0, 0);&quot;&gt;    String &lt;span style=&quot;color: rgb(209, 154, 102);&quot;&gt;input&lt;/span&gt; &lt;span style=&quot;color: rgb(86, 182, 194);&quot;&gt;=&lt;/span&gt; &lt;span style=&quot;color: rgb(97, 175, 239);&quot;&gt;jsonEncode&lt;/span&gt;({&lt;/span&gt;&lt;/div&gt;&lt;div style=&quot;&quot;&gt;      &lt;span style=&quot;background-color: rgb(0, 0, 0);&quot;&gt;&lt;span style=&quot;color: #98c379;&quot;&gt;&amp;nbsp; &amp;nbsp; &quot;schema&quot;&lt;/span&gt;&lt;span style=&quot;color: #c678dd;&quot;&gt;:&lt;/span&gt; &lt;span style=&quot;color: #e06c75;&quot;&gt;schema&lt;/span&gt;, &lt;span style=&quot;color: #7f848e;&quot;&gt;//&quot;cca3371a6cb1b715004407e325bd993c&quot;,&lt;/span&gt;&lt;/span&gt;&lt;/div&gt;&lt;div style=&quot;&quot;&gt;      &lt;span style=&quot;background-color: rgb(0, 0, 0);&quot;&gt;&lt;span style=&quot;color: #98c379;&quot;&gt;&amp;nbsp; &amp;nbsp; &quot;nonce&quot;&lt;/span&gt;&lt;span style=&quot;color: #c678dd;&quot;&gt;:&lt;/span&gt; &lt;span style=&quot;color: #e06c75;&quot;&gt;nonce&lt;/span&gt;, &lt;span style=&quot;color: #7f848e;&quot;&gt;//&quot;15930428023331155902&quot;,&lt;/span&gt;&lt;/span&gt;&lt;/div&gt;&lt;div style=&quot;&quot;&gt;      &lt;span style=&quot;background-color: rgb(0, 0, 0);&quot;&gt;&lt;span style=&quot;color: #98c379;&quot;&gt;&amp;nbsp; &amp;nbsp; &quot;indexSlotA&quot;&lt;/span&gt;&lt;span style=&quot;color: #c678dd;&quot;&gt;:&lt;/span&gt; &lt;span style=&quot;color: #e06c75;&quot;&gt;publicKey&lt;/span&gt;[&lt;span style=&quot;color: #d19a66;&quot;&gt;0&lt;/span&gt;],&lt;/span&gt;&lt;/div&gt;&lt;div style=&quot;&quot;&gt;      &lt;span style=&quot;background-color: rgb(0, 0, 0);&quot;&gt;&lt;span style=&quot;color: #98c379;&quot;&gt;&amp;nbsp; &amp;nbsp; &quot;indexSlotB&quot;&lt;/span&gt;&lt;span style=&quot;color: #c678dd;&quot;&gt;:&lt;/span&gt; &lt;span style=&quot;color: #e06c75;&quot;&gt;publicKey&lt;/span&gt;[&lt;span style=&quot;color: #d19a66;&quot;&gt;1&lt;/span&gt;],&lt;/span&gt;&lt;/div&gt;&lt;div style=&quot;&quot;&gt;&lt;span style=&quot;background-color: rgb(0, 0, 0);&quot;&gt;    });&lt;/span&gt;&lt;/div&gt;&lt;div style=&quot;&quot;&gt;&lt;span style=&quot;background-color: rgb(0, 0, 0);&quot;&gt;&lt;br&gt;&lt;/span&gt;&lt;/div&gt;&lt;div style=&quot;&quot;&gt;&lt;div style=&quot;line-height: 21px;&quot;&gt;&lt;div style=&quot;&quot;&gt;&lt;span style=&quot;background-color: rgb(0, 0, 0);&quot;&gt;func &lt;span style=&quot;color: rgb(97, 175, 239);&quot;&gt;PLGNCreateClaim&lt;/span&gt;(jsonResponse &lt;span style=&quot;color: rgb(198, 120, 221);&quot;&gt;**&lt;/span&gt;C.char, in &lt;span style=&quot;color: rgb(198, 120, 221);&quot;&gt;*&lt;/span&gt;C.char,&lt;/span&gt;&lt;/div&gt;&lt;div style=&quot;&quot;&gt;&lt;span style=&quot;background-color: rgb(0, 0, 0);&quot;&gt;    status &lt;span style=&quot;color: rgb(198, 120, 221);&quot;&gt;**&lt;/span&gt;C.PLGNStatus)&lt;/span&gt;&lt;/div&gt;&lt;/div&gt;&lt;/div&gt;&lt;div style=&quot;&quot;&gt;&lt;span style=&quot;background-color: rgb(0, 0, 0);&quot;&gt;&lt;br&gt;&lt;/span&gt;&lt;/div&gt;&lt;/div&gt;&lt;/div&gt;&lt;/div&gt;" style="text;html=1;align=left;verticalAlign=middle;resizable=0;points=[];autosize=1;strokeColor=default;fillColor=#000000;fontSize=11;labelBorderColor=none;dashed=1;" vertex="1" parent="1">
          <mxGeometry x="1230" y="420" width="410" height="220" as="geometry" />
        </mxCell>
        <mxCell id="f_Ja7BS4CiRk9DhTNqwc-38" value="" style="endArrow=classic;html=1;rounded=0;dashed=1;strokeColor=#999999;entryX=-0.005;entryY=0.63;entryDx=0;entryDy=0;entryPerimeter=0;" edge="1" parent="1" target="f_Ja7BS4CiRk9DhTNqwc-35">
          <mxGeometry width="50" height="50" relative="1" as="geometry">
            <mxPoint x="1010" y="620" as="sourcePoint" />
            <mxPoint x="1060" y="570" as="targetPoint" />
          </mxGeometry>
        </mxCell>
      </root>
    </mxGraphModel>
  </diagram>
</mxfile>
